<?xml version="1.0" standalone="no"?>
<!DOCTYPE svg PUBLIC "-//W3C//DTD SVG 20010904//EN"
 "http://www.w3.org/TR/2001/REC-SVG-20010904/DTD/svg10.dtd">
<svg version="1.0" xmlns="http://www.w3.org/2000/svg"
 width="112.000000pt" height="112.000000pt" viewBox="0 0 112.000000 112.000000"
 preserveAspectRatio="xMidYMid meet">
<metadata>
Created by potrace 1.14, written by Peter Selinger 2001-2017
</metadata>
<g transform="translate(0.000000,112.000000) scale(0.100000,-0.100000)"
fill="#000000" stroke="none">
<path d="M80 864 c-49 -21 -80 -53 -80 -83 l0 -25 28 26 c42 40 86 58 140 58
65 0 109 -30 142 -95 22 -43 25 -63 24 -145 -1 -129 -14 -157 -95 -203 -35
-19 -67 -33 -71 -31 -4 3 -17 25 -28 51 -29 65 -29 204 0 233 23 23 33 24 61
10 14 -8 19 -21 19 -55 0 -50 -18 -60 -42 -23 -20 29 -48 18 -48 -20 0 -40 28
-62 78 -62 47 0 69 23 79 83 19 119 -101 195 -182 114 -35 -35 -55 -89 -55
-151 0 -44 25 -148 46 -188 8 -16 10 -28 4 -28 -21 0 -69 57 -85 100 l-15 45
3 -60 c2 -49 10 -71 39 -117 l37 -57 -20 -40 c-10 -22 -22 -69 -26 -103 -3
-35 -10 -71 -15 -80 -8 -17 3 -18 164 -17 155 0 169 2 133 13 -69 22 -115 55
-115 82 0 36 25 79 60 104 l30 22 -21 -36 c-41 -70 -2 -131 83 -131 43 0 53 4
79 33 22 24 29 42 29 72 0 58 -18 87 -67 111 -103 50 -225 -22 -256 -150 -13
-54 -20 -60 -54 -36 -19 13 -20 19 -11 53 27 99 104 183 216 237 114 54 161
65 281 62 100 -2 111 -5 188 -41 61 -29 97 -54 137 -96 80 -84 113 -159 84
-188 -19 -19 -24 -15 -43 34 -37 96 -120 153 -207 141 -116 -16 -149 -170 -48
-222 56 -29 109 -16 135 35 21 40 19 62 -7 96 l-23 29 25 -16 c33 -21 70 -76
70 -105 0 -14 -9 -28 -22 -35 -12 -7 -29 -20 -38 -30 -8 -10 -33 -23 -55 -28
-29 -7 9 -9 144 -10 l184 -1 -20 23 c-12 12 -24 42 -28 67 -4 25 -16 66 -26
91 -18 46 -18 47 2 65 11 10 38 45 60 78 31 48 39 70 39 106 l0 45 -20 -42
c-11 -25 -33 -51 -52 -63 -52 -31 -61 -24 -29 21 37 50 55 128 49 204 -4 51
-9 62 -41 92 -44 40 -90 44 -132 11 -54 -42 -69 -119 -35 -175 17 -28 25 -33
58 -33 45 0 72 23 72 63 0 22 -5 27 -25 27 -14 0 -28 -7 -31 -15 -8 -21 -21
-19 -29 5 -10 30 21 80 50 80 38 0 58 -40 53 -103 -5 -61 -28 -112 -71 -161
l-32 -36 -67 46 c-64 43 -67 47 -79 102 -24 118 15 252 89 309 39 29 51 33
107 33 54 0 68 -4 95 -26 17 -15 39 -43 50 -63 l19 -36 1 43 c1 133 -228 168
-326 49 -46 -56 -69 -129 -69 -222 0 -44 3 -94 7 -111 l7 -32 -52 14 c-66 18
-215 18 -290 0 -53 -12 -58 -12 -52 3 17 43 27 133 21 194 -7 76 -26 130 -59
166 -51 56 -155 76 -227 45z m316 -719 c-12 -46 -83 -44 -74 1 2 15 11 18 36
16 25 -3 32 0 33 15 0 11 3 13 6 5 3 -7 2 -24 -1 -37z m334 18 c28 6 31 5 28
-16 -6 -46 -78 -26 -78 22 0 13 2 14 9 2 6 -10 19 -12 41 -8z m-540 -133 c11
-7 -3 -10 -45 -10 -42 0 -56 3 -45 10 19 12 71 12 90 0z m800 0 c11 -7 -4 -10
-48 -10 -40 0 -61 4 -57 10 8 13 85 13 105 0z"/>
<path d="M510 115 c0 -10 10 -15 30 -15 20 0 30 5 30 15 0 10 -10 15 -30 15
-20 0 -30 -5 -30 -15z"/>
<path d="M468 59 c18 -19 126 -19 144 0 11 11 9 12 -12 5 -32 -11 -88 -11
-120 0 -21 7 -23 6 -12 -5z"/>
</g>
</svg>
